<svg xmlns="http://www.w3.org/2000/svg" viewBox="0 0 535 535" role="img" aria-label="Raimo">
<g fill="none" stroke="#1052F5" stroke-width="23">
<circle cx="179.5" cy="205" r="73.5"/>
<circle cx="349" cy="204.5" r="72"/>
</g>
<rect x="251" y="196" width="26" height="20" rx="4" fill="#1052F5"/>
<path fill="#1052F5" d="M263 300 C 248 300 235 309 227 323 C 216 339 197 350 172 357 C 149 363 126 361 106 352 C 118 374 138 390 164 396 C 196 403 234 392 263 360 C 292 392 330 403 362 396 C 388 390 408 374 420 352 C 400 361 377 363 354 357 C 329 350 310 339 299 323 C 291 309 278 300 263 300 Z"/>
</svg>